<svg xmlns="http://www.w3.org/2000/svg" width="36" height="36" fill="none" viewBox="0 0 36 36"><path fill="#163152" d="M17.985 0A17.984 17.984 0 0 0 7.787 3.182c-3 2.069-5.301 5-6.601 8.407a18.044 18.044 0 0 0 4.798 19.853l.263.225.142.105c.323.278.653.54.998.789l.277.203c.36.255.75.495 1.118.75l.187.113c.42.248.848.473 1.283.683.946.449 1.93.813 2.94 1.09h.053c.48.134.967.247 1.5.337h.135c.48.083.96.15 1.454.195h.166c.494.045.997.068 1.5.068.502 0 1.005 0 1.5-.068h.165c.495-.045.975-.112 1.454-.195h.136c.495-.09.99-.203 1.5-.338h.052c1.01-.276 1.994-.64 2.94-1.089.435-.21.863-.443 1.282-.683l.188-.113c.383-.225.75-.473 1.117-.75l.278-.203c.345-.248.675-.51.998-.789l.142-.105.263-.225a18.044 18.044 0 0 0 4.793-19.867 18.02 18.02 0 0 0-6.615-8.406A17.984 17.984 0 0 0 17.984 0Zm0 18.023a5.995 5.995 0 0 1-5.544-3.709 6.015 6.015 0 0 1 1.3-6.547 5.998 5.998 0 0 1 6.54-1.302 6.002 6.002 0 0 1 3.704 5.55 6.012 6.012 0 0 1-1.758 4.248 5.996 5.996 0 0 1-4.242 1.76Zm2.25 1.501c2.188 0 4.286.87 5.833 2.42a8.266 8.266 0 0 1 2.416 5.84v3.005l-.097.075c-.293.24-.6.473-.907.69l-.21.143c-.33.233-.675.443-1.028.646l-.195.113c-.367.21-.75.405-1.117.578l-.12.007c-1.25.565-2.566.974-3.915 1.217h-.128c-.42.075-.855.127-1.282.172h-.18c-.443 0-.878.06-1.32.06-.443 0-.878 0-1.32-.06h-.18c-.428 0-.863-.09-1.283-.165h-.127a16.185 16.185 0 0 1-3.908-1.224h-.127c-.375-.18-.75-.368-1.118-.578l-.188-.173a13.173 13.173 0 0 1-1.027-.645l-.218-.106c-.307-.225-.615-.45-.907-.69l-.098-.06v-3.004c0-2.191.87-4.292 2.417-5.841a8.245 8.245 0 0 1 5.834-2.42h4.5Zm9.75 9.823v-1.562a9.77 9.77 0 0 0-2.192-6.172 9.747 9.747 0 0 0-5.593-3.395 7.508 7.508 0 0 0 2.953-8.42 7.508 7.508 0 0 0-2.712-3.832A7.494 7.494 0 0 0 10.816 9.8a7.518 7.518 0 0 0 2.954 8.419 9.748 9.748 0 0 0-5.594 3.395 9.77 9.77 0 0 0-2.192 6.172v1.562a16.54 16.54 0 0 1-3.151-17.881 16.516 16.516 0 0 1 6.084-7.26 16.485 16.485 0 0 1 18.135 0 16.515 16.515 0 0 1 6.084 7.26 16.539 16.539 0 0 1-3.152 17.88Z"/></svg>