<svg xmlns="http://www.w3.org/2000/svg" width="64" height="68" fill="none" viewBox="0 0 64 68"><path fill="#163152" d="M43.507 51.755c-5.545 2.932-31.16 6.63-31.16 6.63s19.277-1.02 30.896-2.677C54.86 54.05 61.199 40.154 61.199 40.154L3.898 46.402l50.963-2.168s-5.809 4.59-11.354 7.521ZM32.548 4.419c13.643 20.694.792 34.504.792 34.504 8.979-15.807-.792-34.504-.792-34.504Zm-3.05 36.883 25.458-2.793S61.116 12.934 28.06 0c0 0 12.788 23.223 1.439 41.303ZM11.82 41.303C20.93 30.722 26.079 10.58 26.079 10.58c-1.98 20.268-14.26 30.722-14.26 30.722ZM27.003 3.187S20.666 27.28 8.651 43.597l19.408-2.294-1.056-38.116Z"/><path fill="#163152" d="M24.362 47.676 3.898 49.27l.66 1.593 19.804-3.187ZM21.986 52.52 6.472 55.057l.66 1.594 14.854-4.13ZM5.35 52.456l.66 1.594 22.05-4.78-22.71 3.186ZM7.47 61.786h-.138c-.185 0-.363.048-.534.145a1.345 1.345 0 0 0-.405.36l-1.9 2.824v2.102a.565.565 0 0 0 .182.391.612.612 0 0 0 .427.155h.117v.103H2.23v-.103h.128a.598.598 0 0 0 .416-.155.565.565 0 0 0 .181-.391v-2.102L1.067 62.29a1.067 1.067 0 0 0-.405-.36 1.034 1.034 0 0 0-.534-.145H0v-.103h3.244v.103h-.117c-.135 0-.235.045-.299.134a.4.4 0 0 0-.085.217c0 .055.014.106.043.154l1.419 2.37 1.44-2.37a.377.377 0 0 0 .033-.154c0-.062-.032-.134-.096-.217-.057-.089-.153-.134-.288-.134h-.107v-.103H7.47v.103ZM13.369 67.763h.085v.103h-3.137v-.103h.085c.142 0 .245-.041.31-.124a.382.382 0 0 0 .095-.226.613.613 0 0 0-.042-.217l-.416-.948H8.086l-.427.959a.56.56 0 0 0-.043.216c0 .069.032.144.096.227.072.075.178.113.32.113h.086v.103H5.984v-.103h.085c.15 0 .299-.045.448-.134.15-.09.27-.223.363-.402l2.21-4.575c.312-.68.476-1.1.49-1.257h.096l2.86 5.79c.093.2.214.348.363.444a.94.94 0 0 0 .47.134Zm-5.102-1.917h1.9l-.939-2.153-.96 2.153ZM17.178 68c-1.195-.007-2.134-.292-2.818-.855-.682-.57-1.024-1.36-1.024-2.37s.338-1.8 1.014-2.37c.683-.57 1.626-.856 2.828-.856.94 0 1.74.158 2.401.474v1.639h-.074c-.178-.612-.452-1.048-.822-1.309-.37-.261-.836-.392-1.398-.392-.754 0-1.33.251-1.73.753-.398.494-.597 1.175-.597 2.04 0 .859.196 1.542.587 2.05.406.523.957.784 1.654.784.506 0 .922-.076 1.25-.227.326-.151.586-.392.778-.721.192-.337.335-.79.427-1.36h.075l.128 1.556c-.22.35-.559.632-1.014.845-.448.213-1.003.319-1.665.319ZM27.783 67.763h.117v.103h-2.935v-.103h.107a.597.597 0 0 0 .416-.155.505.505 0 0 0 .171-.391V64.99h-2.807v2.226a.54.54 0 0 0 .181.391c.114.103.25.155.406.155h.117v.103h-2.945v-.103h.117a.598.598 0 0 0 .416-.155c.114-.11.171-.24.171-.391v-4.884a.494.494 0 0 0-.17-.382.577.577 0 0 0-.417-.165h-.117v-.103h2.945v.103h-.117a.584.584 0 0 0-.405.155.53.53 0 0 0-.182.381v2.257h2.807v-2.246a.505.505 0 0 0-.288-.474.638.638 0 0 0-.299-.073h-.107v-.103H27.9v.103h-.117a.584.584 0 0 0-.406.155.54.54 0 0 0-.181.392v4.894a.507.507 0 0 0 .288.464.64.64 0 0 0 .299.072ZM34.432 63.147v-.093c0-.296-.086-.53-.256-.7-.171-.173-.41-.262-.715-.269h-1.238v5.142a.53.53 0 0 0 .181.381.584.584 0 0 0 .406.155h.117v.103h-2.946v-.103h.107a.598.598 0 0 0 .416-.155.505.505 0 0 0 .171-.391v-5.132h-1.227c-.313.007-.555.096-.726.268-.17.172-.256.405-.256.7v.094h-.107v-1.629c.1.035.263.07.491.103.235.035.445.052.63.052h3.938c.313 0 .57-.02.768-.062.207-.048.324-.079.353-.093v1.629h-.107ZM41.515 68c-1.196-.007-2.135-.292-2.818-.855-.683-.57-1.025-1.36-1.025-2.37s.338-1.8 1.014-2.37c.683-.57 1.626-.856 2.829-.856.939 0 1.74.158 2.4.474v1.639h-.074c-.178-.612-.452-1.048-.822-1.309-.37-.261-.836-.392-1.398-.392-.754 0-1.33.251-1.729.753-.398.494-.597 1.175-.597 2.04 0 .859.195 1.542.587 2.05.405.523.957.784 1.654.784.505 0 .921-.076 1.249-.227.327-.151.587-.392.779-.721.192-.337.334-.79.427-1.36h.074l.128 1.556c-.22.35-.558.632-1.014.845-.448.213-1.003.319-1.664.319ZM44.947 67.866v-.103h.128a.56.56 0 0 0 .406-.155.494.494 0 0 0 .17-.38v-4.895a.494.494 0 0 0-.17-.382.564.564 0 0 0-.406-.165h-.128v-.103h2.967v.103h-.128a.598.598 0 0 0-.416.155.505.505 0 0 0-.17.392v5.12h1.28c.441-.006.815-.136 1.12-.39.307-.262.53-.626.673-1.093h.117l-.416 1.896h-5.027ZM57.638 61.786h-.15a.495.495 0 0 0-.34.124.398.398 0 0 0-.15.299v3.41c0 .743-.235 1.326-.705 1.752-.47.42-1.17.629-2.102.629-.925 0-1.647-.206-2.167-.618-.512-.413-.768-.993-.768-1.742v-3.42a.385.385 0 0 0-.15-.31.495.495 0 0 0-.341-.124h-.15v-.103h2.807v.103h-.15a.495.495 0 0 0-.34.124.397.397 0 0 0-.14.31v3.348c0 .632.15 1.127.449 1.484.306.357.733.536 1.28.536.548 0 .979-.168 1.292-.505.32-.337.48-.804.48-1.401v-3.463a.408.408 0 0 0-.15-.309.495.495 0 0 0-.34-.124h-.14v-.103h1.975v.103ZM63.498 63.219c0 .254-.056.477-.17.67-.22.37-.555.573-1.004.607.477.035.876.2 1.196.495.32.289.48.66.48 1.113 0 .886-.551 1.443-1.654 1.67a5.295 5.295 0 0 1-1.025.092h-3.095v-.103h.117a.56.56 0 0 0 .406-.155.54.54 0 0 0 .181-.391v-4.884a.517.517 0 0 0-.362-.505.616.616 0 0 0-.224-.042h-.118v-.103h2.86c1.608 0 2.412.512 2.412 1.536Zm-1.227 2.792c0-.316-.068-.58-.203-.793-.249-.412-.68-.618-1.291-.618h-.022v-.093c.342 0 .62-.096.833-.289.213-.192.32-.491.32-.896 0-.825-.388-1.237-1.163-1.237h-.299v5.369h.427c.413 0 .747-.117 1.003-.35.263-.234.395-.598.395-1.093Z"/></svg>